<svg xmlns="http://www.w3.org/2000/svg" width="429.068" height="429.068" viewBox="0 0 429.068 429.068">
  <g id="Gruppe_4" data-name="Gruppe 4" transform="translate(-258.241 -366.951)" opacity="0.75" style="isolation: isolate">
    <circle id="Ellipse_1" data-name="Ellipse 1" cx="32.074" cy="32.074" r="32.074" transform="translate(622.161 367.951)" fill="#1ec4e4"/>
    <circle id="Ellipse_2" data-name="Ellipse 2" cx="32.074" cy="32.074" r="32.074" transform="translate(259.241 367.951)" fill="none" stroke="#1ec4e4" stroke-width="2"/>
    <circle id="Ellipse_3" data-name="Ellipse 3" cx="32.074" cy="32.074" r="32.074" transform="translate(259.241 730.871)" fill="#1ec4e4"/>
    <circle id="Ellipse_4" data-name="Ellipse 4" cx="32.074" cy="32.074" r="32.074" transform="translate(622.161 730.871)" fill="none" stroke="#1ec4e4" stroke-width="2"/>
    <path id="Pfad_7" data-name="Pfad 7" d="M462.863,568.775c-8.738-32.342-13.99-65.142-1.638-100.254.469-1.34,1.009-2.654,1.579-3.953a62.23,62.23,0,0,0-3.86-7.177c-19.158-30.556-43.581-58.763-72.61-83.87a208.989,208.989,0,0,1-72.962,48.573,208.821,208.821,0,0,1-48.56,72.949c25.107,29.029,53.314,53.452,83.867,72.61a62.841,62.841,0,0,0,7.18,3.862c1.3-.57,2.61-1.109,3.95-1.579,35.118-12.354,67.921-7.1,100.268,1.643.733-.2,1.457-.383,2.2-.588C462.477,570.247,462.663,569.516,462.863,568.775Z" transform="translate(8.867 8.866)" fill="none"/>
    <path id="Pfad_8" data-name="Pfad 8" d="M344.835,450.734c-.744.2-1.475.391-2.224.6-.2.741-.389,1.464-.589,2.2,8.738,32.341,13.992,65.142,1.641,100.257-.472,1.338-1.008,2.649-1.578,3.945a62.6,62.6,0,0,0,3.854,7.178c19.171,30.566,43.594,58.773,72.61,83.867a208.906,208.906,0,0,1,72.962-48.55,209.024,209.024,0,0,1,48.56-72.973c-25.094-29.016-53.3-53.439-83.867-72.607a62.4,62.4,0,0,0-7.175-3.854c-1.3.568-2.613,1.107-3.951,1.579C409.97,464.721,377.172,459.472,344.835,450.734Z" transform="translate(131.796 131.798)" fill="none"/>
    <path id="Pfad_9" data-name="Pfad 9" d="M495.951,604.668l.319-.819a205.106,205.106,0,0,1,49.3-73.67l1.389-1.322-1.241-1.446c-25.678-29.962-54.613-55.139-86.021-74.831-1.56-.98-3.147-1.861-4.744-2.688q-2.247,1.217-4.586,2.242a62.379,62.379,0,0,1,7.175,3.855c30.566,19.168,58.773,43.591,83.867,72.607a209.03,209.03,0,0,0-48.561,72.972,208.908,208.908,0,0,0-72.962,48.55c-29.016-25.094-53.439-53.3-72.61-83.868a62.505,62.505,0,0,1-3.855-7.177q-1.023,2.34-2.242,4.588c.829,1.6,1.711,3.183,2.691,4.744a368.943,368.943,0,0,0,51.9,64.8q10.941,10.941,22.932,21.219l1.447,1.244,1.322-1.392a205.1,205.1,0,0,1,73.667-49.3Z" transform="translate(130.458 130.457)" fill="#1ec4e4"/>
    <path id="Pfad_12" data-name="Pfad 12" d="M352.087,571.061c-30.553-19.158-58.76-43.581-83.867-72.61A208.823,208.823,0,0,0,316.78,425.5a208.99,208.99,0,0,0,72.962-48.573c29.029,25.107,53.452,53.314,72.61,83.87a62.292,62.292,0,0,1,3.86,7.178q1.026-2.34,2.242-4.586c-.827-1.594-1.706-3.175-2.683-4.736-19.695-31.408-44.882-60.357-74.831-86.021l-1.459-1.255-1.322,1.39a204.853,204.853,0,0,1-73.667,49.3l-.811.329-.319.8a204.817,204.817,0,0,1-49.3,73.667l-1.389,1.322,1.252,1.459q10.257,11.968,21.221,22.93a368.987,368.987,0,0,0,64.8,51.9c1.558.977,3.142,1.856,4.739,2.683q2.243-1.213,4.583-2.239A62.92,62.92,0,0,1,352.087,571.061Z" transform="translate(5.459 5.457)" fill="#1ec4e4"/>
    <path id="Pfad_13" data-name="Pfad 13" d="M346.7,512.852c9.653-35.654,13.469-66.475,1.835-99.591-.544-1.542-1.192-3.082-1.895-4.616-.57,1.3-1.109,2.613-1.579,3.953C332.713,447.71,337.965,480.511,346.7,512.852Z" transform="translate(125.027 64.788)" fill="#1ec4e4"/>
    <path id="Pfad_14" data-name="Pfad 14" d="M343.108,456.288c32.337,8.738,65.134,13.987,100.244,1.638,1.338-.472,2.652-1.011,3.951-1.579-1.532-.7-3.069-1.348-4.611-1.889C409.569,442.812,378.749,446.627,343.108,456.288Z" transform="translate(133.524 126.244)" fill="#1ec4e4"/>
    <path id="Pfad_15" data-name="Pfad 15" d="M343.809,571.428c36.344-9.834,67.812-13.676,101.875-1.7a61.737,61.737,0,0,1,7.875,3.456c1.242-.671,2.468-1.368,3.665-2.121,32.238-20.218,60.57-45.268,85.568-74.44A205.967,205.967,0,0,1,493,422.24a205.952,205.952,0,0,1-74.385-49.789c-29.171,25-54.224,53.332-74.442,85.57-.749,1.195-1.446,2.421-2.118,3.662a61.785,61.785,0,0,1,3.448,7.87C357.485,503.619,353.643,535.084,343.809,571.428Z" transform="translate(131.854 7.164)" fill="#1ec4e4"/>
    <path id="Pfad_16" data-name="Pfad 16" d="M303.886,453.775c-1.34.469-2.652,1.008-3.95,1.578,1.535.7,3.074,1.35,4.617,1.892,33.122,11.636,63.947,7.818,99.6-1.827C371.807,446.677,339,441.42,303.886,453.775Z" transform="translate(64.79 125.027)" fill="#1ec4e4"/>
    <path id="Pfad_17" data-name="Pfad 17" d="M462.721,452.518c-36.344,9.837-67.812,13.676-101.875,1.7a61.75,61.75,0,0,1-7.867-3.448c-1.244.672-2.47,1.371-3.668,2.12-32.24,20.218-60.57,45.271-85.57,74.443a205.946,205.946,0,0,1,49.789,74.385A205.961,205.961,0,0,1,387.915,651.5c29.171-25,54.221-53.33,74.44-85.568.752-1.2,1.449-2.426,2.12-3.668a61.459,61.459,0,0,1-3.453-7.872C449.045,520.33,452.886,488.864,462.721,452.518Z" transform="translate(7.164 131.852)" fill="#1ec4e4"/>
    <path id="Pfad_18" data-name="Pfad 18" d="M347.575,451.813c-9.656,35.641-13.474,66.464-1.827,99.6.544,1.54,1.19,3.077,1.89,4.606.57-1.3,1.107-2.608,1.579-3.945C361.567,516.955,356.313,484.155,347.575,451.813Z" transform="translate(126.244 133.516)" fill="#1ec4e4"/>
    <path id="Pfad_19" data-name="Pfad 19" d="M410.017,554.449c-11.646-33.132-7.828-63.955,1.827-99.6-.347-1.28-.687-2.564-1.045-3.844-1.275-.355-2.553-.695-3.831-1.04-35.654,9.645-66.479,13.463-99.6,1.828-1.542-.542-3.082-1.192-4.617-1.892q-2.337,1.023-4.583,2.24a61.79,61.79,0,0,0,7.867,3.447c34.063,11.978,65.531,8.14,101.875-1.7-9.834,36.346-13.676,67.812-1.7,101.877a61.406,61.406,0,0,0,3.453,7.873q1.217-2.247,2.242-4.588C411.207,557.525,410.561,555.988,410.017,554.449Z" transform="translate(61.975 130.476)" fill="none"/>
    <path id="Pfad_20" data-name="Pfad 20" d="M343.088,416.078c11.634,33.117,7.818,63.937-1.835,99.591.347,1.283.69,2.563,1.045,3.844,1.286.358,2.571.7,3.857,1.047,35.641-9.661,66.461-13.477,99.583-1.83,1.542.542,3.079,1.19,4.611,1.89q2.337-1.026,4.586-2.242a61.751,61.751,0,0,0-7.875-3.455c-34.063-11.978-65.531-8.137-101.875,1.7,9.834-36.344,13.676-67.81,1.7-101.875a61.82,61.82,0,0,0-3.448-7.869q-1.217,2.244-2.242,4.585C341.9,413,342.544,414.536,343.088,416.078Z" transform="translate(130.477 61.972)" fill="none"/>
  </g>
</svg>
